<mxfile host="app.diagrams.net" modified="2024-05-21T07:00:05.361Z" agent="Mozilla/5.0 (Macintosh; Intel Mac OS X 10_15_7) AppleWebKit/537.36 (KHTML, like Gecko) Chrome/125.0.0.0 Safari/537.36" etag="Ngh6I4tkt6C3co3bf0WQ" version="24.4.4" type="github">
  <diagram id="C5RBs43oDa-KdzZeNtuy" name="Page-1">
    <mxGraphModel dx="1434" dy="761" grid="1" gridSize="10" guides="1" tooltips="1" connect="1" arrows="1" fold="1" page="1" pageScale="1" pageWidth="827" pageHeight="1169" math="0" shadow="0">
      <root>
        <mxCell id="WIyWlLk6GJQsqaUBKTNV-0" />
        <mxCell id="WIyWlLk6GJQsqaUBKTNV-1" parent="WIyWlLk6GJQsqaUBKTNV-0" />
        <mxCell id="p56skrD9Vq5TKaKU2sLa-2" value="" style="edgeStyle=orthogonalEdgeStyle;rounded=0;orthogonalLoop=1;jettySize=auto;html=1;entryX=0.5;entryY=0;entryDx=0;entryDy=0;" edge="1" parent="WIyWlLk6GJQsqaUBKTNV-1" source="p56skrD9Vq5TKaKU2sLa-0" target="p56skrD9Vq5TKaKU2sLa-5">
          <mxGeometry relative="1" as="geometry">
            <mxPoint x="300" y="210" as="targetPoint" />
          </mxGeometry>
        </mxCell>
        <mxCell id="p56skrD9Vq5TKaKU2sLa-0" value="发起数据采集请求" style="strokeWidth=2;html=1;shape=mxgraph.flowchart.start_1;whiteSpace=wrap;" vertex="1" parent="WIyWlLk6GJQsqaUBKTNV-1">
          <mxGeometry x="240" y="70" width="120" height="70" as="geometry" />
        </mxCell>
        <mxCell id="p56skrD9Vq5TKaKU2sLa-10" value="" style="edgeStyle=orthogonalEdgeStyle;rounded=0;orthogonalLoop=1;jettySize=auto;html=1;" edge="1" parent="WIyWlLk6GJQsqaUBKTNV-1" source="p56skrD9Vq5TKaKU2sLa-5" target="p56skrD9Vq5TKaKU2sLa-9">
          <mxGeometry relative="1" as="geometry" />
        </mxCell>
        <mxCell id="p56skrD9Vq5TKaKU2sLa-5" value="本地获取token" style="whiteSpace=wrap;html=1;strokeWidth=2;" vertex="1" parent="WIyWlLk6GJQsqaUBKTNV-1">
          <mxGeometry x="240" y="190" width="120" height="60" as="geometry" />
        </mxCell>
        <mxCell id="p56skrD9Vq5TKaKU2sLa-14" value="" style="edgeStyle=orthogonalEdgeStyle;rounded=0;orthogonalLoop=1;jettySize=auto;html=1;" edge="1" parent="WIyWlLk6GJQsqaUBKTNV-1" source="p56skrD9Vq5TKaKU2sLa-9" target="p56skrD9Vq5TKaKU2sLa-13">
          <mxGeometry relative="1" as="geometry" />
        </mxCell>
        <mxCell id="p56skrD9Vq5TKaKU2sLa-15" value="Yes" style="edgeLabel;html=1;align=center;verticalAlign=middle;resizable=0;points=[];" vertex="1" connectable="0" parent="p56skrD9Vq5TKaKU2sLa-14">
          <mxGeometry x="-0.0667" relative="1" as="geometry">
            <mxPoint as="offset" />
          </mxGeometry>
        </mxCell>
        <mxCell id="p56skrD9Vq5TKaKU2sLa-26" value="" style="edgeStyle=orthogonalEdgeStyle;rounded=0;orthogonalLoop=1;jettySize=auto;html=1;" edge="1" parent="WIyWlLk6GJQsqaUBKTNV-1" source="p56skrD9Vq5TKaKU2sLa-9" target="p56skrD9Vq5TKaKU2sLa-25">
          <mxGeometry relative="1" as="geometry" />
        </mxCell>
        <mxCell id="p56skrD9Vq5TKaKU2sLa-27" value="No" style="edgeLabel;html=1;align=center;verticalAlign=middle;resizable=0;points=[];" vertex="1" connectable="0" parent="p56skrD9Vq5TKaKU2sLa-26">
          <mxGeometry x="-0.16" y="2" relative="1" as="geometry">
            <mxPoint as="offset" />
          </mxGeometry>
        </mxCell>
        <mxCell id="p56skrD9Vq5TKaKU2sLa-9" value="是否存在" style="rhombus;whiteSpace=wrap;html=1;strokeWidth=2;" vertex="1" parent="WIyWlLk6GJQsqaUBKTNV-1">
          <mxGeometry x="260" y="290" width="80" height="80" as="geometry" />
        </mxCell>
        <mxCell id="p56skrD9Vq5TKaKU2sLa-17" value="" style="edgeStyle=orthogonalEdgeStyle;rounded=0;orthogonalLoop=1;jettySize=auto;html=1;" edge="1" parent="WIyWlLk6GJQsqaUBKTNV-1" source="p56skrD9Vq5TKaKU2sLa-13" target="p56skrD9Vq5TKaKU2sLa-16">
          <mxGeometry relative="1" as="geometry" />
        </mxCell>
        <mxCell id="p56skrD9Vq5TKaKU2sLa-13" value="校验token" style="whiteSpace=wrap;html=1;strokeWidth=2;" vertex="1" parent="WIyWlLk6GJQsqaUBKTNV-1">
          <mxGeometry x="240" y="430" width="120" height="60" as="geometry" />
        </mxCell>
        <mxCell id="p56skrD9Vq5TKaKU2sLa-19" value="" style="edgeStyle=orthogonalEdgeStyle;rounded=0;orthogonalLoop=1;jettySize=auto;html=1;" edge="1" parent="WIyWlLk6GJQsqaUBKTNV-1" source="p56skrD9Vq5TKaKU2sLa-16" target="p56skrD9Vq5TKaKU2sLa-18">
          <mxGeometry relative="1" as="geometry" />
        </mxCell>
        <mxCell id="p56skrD9Vq5TKaKU2sLa-20" value="Yes" style="edgeLabel;html=1;align=center;verticalAlign=middle;resizable=0;points=[];" vertex="1" connectable="0" parent="p56skrD9Vq5TKaKU2sLa-19">
          <mxGeometry x="-0.1333" y="1" relative="1" as="geometry">
            <mxPoint as="offset" />
          </mxGeometry>
        </mxCell>
        <mxCell id="p56skrD9Vq5TKaKU2sLa-28" style="edgeStyle=orthogonalEdgeStyle;rounded=0;orthogonalLoop=1;jettySize=auto;html=1;exitX=1;exitY=0.5;exitDx=0;exitDy=0;" edge="1" parent="WIyWlLk6GJQsqaUBKTNV-1" source="p56skrD9Vq5TKaKU2sLa-16" target="p56skrD9Vq5TKaKU2sLa-25">
          <mxGeometry relative="1" as="geometry" />
        </mxCell>
        <mxCell id="p56skrD9Vq5TKaKU2sLa-29" value="No" style="edgeLabel;html=1;align=center;verticalAlign=middle;resizable=0;points=[];" vertex="1" connectable="0" parent="p56skrD9Vq5TKaKU2sLa-28">
          <mxGeometry x="-0.0588" y="2" relative="1" as="geometry">
            <mxPoint as="offset" />
          </mxGeometry>
        </mxCell>
        <mxCell id="p56skrD9Vq5TKaKU2sLa-16" value="是否有效" style="rhombus;whiteSpace=wrap;html=1;strokeWidth=2;" vertex="1" parent="WIyWlLk6GJQsqaUBKTNV-1">
          <mxGeometry x="260" y="540" width="80" height="80" as="geometry" />
        </mxCell>
        <mxCell id="p56skrD9Vq5TKaKU2sLa-22" value="" style="edgeStyle=orthogonalEdgeStyle;rounded=0;orthogonalLoop=1;jettySize=auto;html=1;" edge="1" parent="WIyWlLk6GJQsqaUBKTNV-1" source="p56skrD9Vq5TKaKU2sLa-18" target="p56skrD9Vq5TKaKU2sLa-21">
          <mxGeometry relative="1" as="geometry" />
        </mxCell>
        <mxCell id="p56skrD9Vq5TKaKU2sLa-18" value="获取本地的目标domain和token" style="whiteSpace=wrap;html=1;strokeWidth=2;" vertex="1" parent="WIyWlLk6GJQsqaUBKTNV-1">
          <mxGeometry x="240" y="680" width="120" height="60" as="geometry" />
        </mxCell>
        <mxCell id="p56skrD9Vq5TKaKU2sLa-24" value="" style="edgeStyle=orthogonalEdgeStyle;rounded=0;orthogonalLoop=1;jettySize=auto;html=1;" edge="1" parent="WIyWlLk6GJQsqaUBKTNV-1" source="p56skrD9Vq5TKaKU2sLa-21" target="p56skrD9Vq5TKaKU2sLa-23">
          <mxGeometry relative="1" as="geometry" />
        </mxCell>
        <mxCell id="p56skrD9Vq5TKaKU2sLa-21" value="创建数据采集请求，获取返回数据" style="whiteSpace=wrap;html=1;strokeWidth=2;" vertex="1" parent="WIyWlLk6GJQsqaUBKTNV-1">
          <mxGeometry x="240" y="810" width="120" height="60" as="geometry" />
        </mxCell>
        <mxCell id="p56skrD9Vq5TKaKU2sLa-23" value="结束" style="strokeWidth=2;html=1;shape=mxgraph.flowchart.terminator;whiteSpace=wrap;" vertex="1" parent="WIyWlLk6GJQsqaUBKTNV-1">
          <mxGeometry x="250" y="920" width="100" height="60" as="geometry" />
        </mxCell>
        <mxCell id="p56skrD9Vq5TKaKU2sLa-30" style="edgeStyle=orthogonalEdgeStyle;rounded=0;orthogonalLoop=1;jettySize=auto;html=1;exitX=0.5;exitY=1;exitDx=0;exitDy=0;entryX=1;entryY=0.5;entryDx=0;entryDy=0;" edge="1" parent="WIyWlLk6GJQsqaUBKTNV-1" source="p56skrD9Vq5TKaKU2sLa-25" target="p56skrD9Vq5TKaKU2sLa-18">
          <mxGeometry relative="1" as="geometry" />
        </mxCell>
        <mxCell id="p56skrD9Vq5TKaKU2sLa-25" value="申请新token&lt;div&gt;并本地缓存&lt;/div&gt;" style="whiteSpace=wrap;html=1;strokeWidth=2;" vertex="1" parent="WIyWlLk6GJQsqaUBKTNV-1">
          <mxGeometry x="510" y="550" width="120" height="60" as="geometry" />
        </mxCell>
      </root>
    </mxGraphModel>
  </diagram>
</mxfile>
